<svg xmlns="http://www.w3.org/2000/svg" width="97" height="45.418" viewBox="0 0 97 45.418">
  <g id="Group_1029" data-name="Group 1029" transform="translate(-119.581 9270.394)">
    <g id="Group_706" data-name="Group 706" transform="translate(119.581 -9270.394)">
      <path id="_" data-name="®" d="M5.037-18.318a3.244,3.244,0,0,1-2.393-1.014,3.324,3.324,0,0,1-1-2.419,3.3,3.3,0,0,1,1.007-2.428,3.31,3.31,0,0,1,2.426-1.005A3.31,3.31,0,0,1,7.5-24.179,3.294,3.294,0,0,1,8.51-21.76,3.307,3.307,0,0,1,7.5-19.319,3.367,3.367,0,0,1,5.037-18.318Zm0-.49a2.782,2.782,0,0,0,2.289-1.056,2.949,2.949,0,0,0,.694-1.891,2.937,2.937,0,0,0-.694-1.882,2.741,2.741,0,0,0-2.249-1.056,2.741,2.741,0,0,0-2.249,1.056,2.943,2.943,0,0,0-.694,1.887,2.852,2.852,0,0,0,.857,2.072A2.781,2.781,0,0,0,5.037-18.809ZM3.946-19.882v-3.712H5.117a1.316,1.316,0,0,1,.842.228.827.827,0,0,1,.281.683,1.144,1.144,0,0,1-.163.605,1.429,1.429,0,0,1-.486.468l1.118,1.728H6.013l-1-1.546H4.542v1.546Zm.557-2.01h.172a1.222,1.222,0,0,0,.736-.183.643.643,0,0,0,.245-.55.5.5,0,0,0-.205-.437,1.066,1.066,0,0,0-.616-.146H4.5Z" transform="translate(88.49 25.185)" fill="#fff"/>
      <path id="Path_150" data-name="Path 150" d="M6.987-63.021V-75.808a3.93,3.93,0,0,1,1.378-3.007A4.737,4.737,0,0,1,11.67-80.07H26.9A7.087,7.087,0,0,1,31.834-78.2a5.849,5.849,0,0,1,2.056,4.486,5.829,5.829,0,0,1-1.805,4.262A11.325,11.325,0,0,1,33.4-67.86a5.176,5.176,0,0,1,.489,2.667,6.5,6.5,0,0,1-2.043,4.187,6.432,6.432,0,0,1-4.934,2.246H11.724A4.8,4.8,0,0,1,8.392-60,4,4,0,0,1,6.987-63.021Zm6.095-8.524H26.9a2.252,2.252,0,0,0,1.615-.652,2.044,2.044,0,0,0,.679-1.52,1.926,1.926,0,0,0-.679-1.473,2.319,2.319,0,0,0-1.615-.618l-15.175-.054v12.786l15.175.054a2.252,2.252,0,0,0,1.615-.652,2.044,2.044,0,0,0,.679-1.52,2.052,2.052,0,0,0-.679-1.513,2.24,2.24,0,0,0-1.615-.658H17.724a4.719,4.719,0,0,1-3.271-1.222A3.882,3.882,0,0,1,13.082-71.546Z" transform="translate(-6.987 93.94)" fill="#fff"/>
      <path id="Path_149" data-name="Path 149" d="M6.987-75.808a3.938,3.938,0,0,1,1.371-3.007,4.747,4.747,0,0,1,3.326-1.256h17.51a4.761,4.761,0,0,1,3.312,1.256,3.922,3.922,0,0,1,1.385,3.007v12.786a3.915,3.915,0,0,1-1.385,3.013,4.776,4.776,0,0,1-3.312,1.249H11.683a4.762,4.762,0,0,1-3.326-1.249,3.932,3.932,0,0,1-1.371-3.013Zm4.7,0v12.786h17.51V-75.808Z" transform="translate(23.62 93.94)" fill="#fff"/>
      <path id="Path_152" data-name="Path 152" d="M19.328-71.559h4.588l6.3-7.656a2.237,2.237,0,0,1,1.887-.869,2.363,2.363,0,0,1,1.649.624,1.966,1.966,0,0,1,.685,1.507,1.909,1.909,0,0,1-.475,1.276l-5.823,7.113,5.592,7.14a1.982,1.982,0,0,1,.706,1.52,1.959,1.959,0,0,1-.685,1.513,2.378,2.378,0,0,1-1.649.618,2.367,2.367,0,0,1-1.86-.814l-.027.014L24.146-67.3h-.136A4.744,4.744,0,0,1,20.7-68.546,3.931,3.931,0,0,1,19.328-71.559Zm-10.845-8.1a2.388,2.388,0,0,1,1.737-.4,2.313,2.313,0,0,1,1.547.821l5.2,6.3a5.137,5.137,0,0,1,1.262,3.359,5.2,5.2,0,0,1-1.235,3.359l-5.334,6.543-.014.014a2.354,2.354,0,0,1-1.547.821,2.446,2.446,0,0,1-1.737-.387,2.046,2.046,0,0,1-.916-1.4,1.951,1.951,0,0,1,.428-1.588l.014-.014L13.9-69.577,8.021-76.663v-.014a1.9,1.9,0,0,1-.455-1.568A2.035,2.035,0,0,1,8.482-79.663Z" transform="translate(53.913 93.954)" fill="#e85a0a"/>
    </g>
    <path id="Path_153" data-name="Path 153" d="M4.024-28.691v1.657H3.466v-4.233H5.027a1.569,1.569,0,0,1,1.089.355,1.2,1.2,0,0,1,.394.939,1.187,1.187,0,0,1-.385.949,1.639,1.639,0,0,1-1.1.333Zm0-.456h1a1,1,0,0,0,.686-.211.77.77,0,0,0,.238-.609.8.8,0,0,0-.238-.6.941.941,0,0,0-.654-.236H4.024Zm2.934.512a1.858,1.858,0,0,1,.182-.832,1.356,1.356,0,0,1,.506-.57,1.377,1.377,0,0,1,.74-.2,1.327,1.327,0,0,1,1.039.445,1.711,1.711,0,0,1,.4,1.183v.038a1.874,1.874,0,0,1-.176.824,1.336,1.336,0,0,1-.5.568,1.393,1.393,0,0,1-.752.2,1.323,1.323,0,0,1-1.037-.445,1.7,1.7,0,0,1-.4-1.178Zm.541.064a1.346,1.346,0,0,0,.243.84.777.777,0,0,0,.65.317.772.772,0,0,0,.651-.321,1.472,1.472,0,0,0,.241-.9,1.343,1.343,0,0,0-.246-.839.781.781,0,0,0-.653-.321.772.772,0,0,0-.643.317A1.461,1.461,0,0,0,7.5-28.572Zm5.783.8.6-2.4h.538l-.916,3.146h-.436l-.765-2.384-.744,2.384h-.436l-.913-3.146h.535l.619,2.355L12.1-30.18h.433Zm2.995.8a1.375,1.375,0,0,1-1.041-.42,1.559,1.559,0,0,1-.4-1.124v-.1a1.888,1.888,0,0,1,.179-.836,1.4,1.4,0,0,1,.5-.576,1.257,1.257,0,0,1,.7-.208,1.178,1.178,0,0,1,.954.4,1.75,1.75,0,0,1,.34,1.157v.224H15.372a1.118,1.118,0,0,0,.272.752.855.855,0,0,0,.661.286.937.937,0,0,0,.483-.116,1.213,1.213,0,0,0,.346-.308l.329.256A1.321,1.321,0,0,1,16.276-26.976Zm-.067-2.82a.717.717,0,0,0-.547.237,1.152,1.152,0,0,0-.273.664h1.576v-.041a1.024,1.024,0,0,0-.221-.635A.675.675,0,0,0,16.209-29.8Zm3.437.1a1.612,1.612,0,0,0-.265-.02.709.709,0,0,0-.718.451v2.233h-.538V-30.18h.523l.009.363a.838.838,0,0,1,.75-.422.55.55,0,0,1,.238.041Zm1.8,2.721A1.375,1.375,0,0,1,20.4-27.4,1.559,1.559,0,0,1,20-28.52v-.1a1.888,1.888,0,0,1,.179-.836,1.4,1.4,0,0,1,.5-.576,1.257,1.257,0,0,1,.7-.208,1.178,1.178,0,0,1,.954.4,1.75,1.75,0,0,1,.34,1.157v.224H20.542a1.118,1.118,0,0,0,.272.752.854.854,0,0,0,.661.286.937.937,0,0,0,.483-.116,1.213,1.213,0,0,0,.346-.308l.329.256A1.321,1.321,0,0,1,21.446-26.976Zm-.067-2.82a.717.717,0,0,0-.547.237,1.152,1.152,0,0,0-.273.664h1.576v-.041a1.024,1.024,0,0,0-.221-.635A.675.675,0,0,0,21.379-29.8Zm1.785,1.163a1.843,1.843,0,0,1,.343-1.164,1.085,1.085,0,0,1,.9-.44,1.091,1.091,0,0,1,.875.378V-31.5h.538v4.466h-.494l-.026-.337a1.1,1.1,0,0,1-.9.4,1.075,1.075,0,0,1-.891-.448,1.864,1.864,0,0,1-.345-1.169Zm.538.061a1.4,1.4,0,0,0,.221.837.714.714,0,0,0,.611.3.785.785,0,0,0,.747-.459v-1.445a.791.791,0,0,0-.741-.445.718.718,0,0,0-.616.305A1.536,1.536,0,0,0,23.7-28.572Zm7.089,0a1.871,1.871,0,0,1-.331,1.159,1.059,1.059,0,0,1-.89.438,1.1,1.1,0,0,1-.922-.422l-.026.363h-.494V-31.5h.538v1.666a1.09,1.09,0,0,1,.9-.4,1.065,1.065,0,0,1,.9.433,1.927,1.927,0,0,1,.327,1.186Zm-.538-.061a1.454,1.454,0,0,0-.212-.849.7.7,0,0,0-.611-.3.79.79,0,0,0-.765.494v1.361a.812.812,0,0,0,.77.494.7.7,0,0,0,.6-.3A1.546,1.546,0,0,0,30.253-28.633Zm2.245.811.733-2.358h.576l-1.265,3.631q-.294.785-.933.785l-.1-.009-.2-.038v-.436l.145.012a.716.716,0,0,0,.426-.11.8.8,0,0,0,.251-.4l.119-.32L31.125-30.18h.587Zm6.6.788h-.561L36.4-30.3v3.262h-.561v-4.233H36.4l2.137,3.277v-3.277H39.1Zm3.384-1.957H40.647v1.5h2.131v.456H40.089v-4.233h2.66v.459h-2.1v1.361h1.835Zm2.373-.654,1.015-1.622h.657l-1.337,2.1,1.369,2.134H45.9l-1.041-1.651-1.047,1.651h-.66l1.372-2.134-1.34-2.1h.654Zm5.277-1.163H48.771v3.774h-.555v-3.774H46.857v-.459h3.274Z" transform="translate(157.781 -9199.212)" fill="#a7aaba"/>
  </g>
</svg>
